<svg width="25" height="20" viewBox="0 0 25 20" fill="none" xmlns="http://www.w3.org/2000/svg">
<path fill-rule="evenodd" clip-rule="evenodd" d="M19.4814 4.16667H7.34542C6.22834 4.16667 5.32277 4.91286 5.32277 5.83333V15C5.32277 15.9205 6.22834 16.6667 7.34542 16.6667H19.4814C20.5985 16.6667 21.504 15.9205 21.504 15V5.83333C21.504 4.91286 20.5985 4.16667 19.4814 4.16667ZM7.34542 2.5C5.11126 2.5 3.30011 3.99238 3.30011 5.83333V15C3.30011 16.8409 5.11126 18.3333 7.34542 18.3333H19.4814C21.7155 18.3333 23.5267 16.8409 23.5267 15V5.83333C23.5267 3.99238 21.7155 2.5 19.4814 2.5H7.34542Z" fill="white"/>
<path fill-rule="evenodd" clip-rule="evenodd" d="M5.32281 6.66669H21.5041V8.33335H5.32281V6.66669Z" fill="white"/>
<path fill-rule="evenodd" clip-rule="evenodd" d="M8.35678 1.66669C8.91532 1.66669 9.36811 2.03979 9.36811 2.50002V5.00002C9.36811 5.46025 8.91532 5.83335 8.35678 5.83335C7.79825 5.83335 7.34546 5.46025 7.34546 5.00002V2.50002C7.34546 2.03979 7.79825 1.66669 8.35678 1.66669Z" fill="white"/>
<path fill-rule="evenodd" clip-rule="evenodd" d="M13.4134 1.66669C13.9719 1.66669 14.4247 2.03979 14.4247 2.50002V5.00002C14.4247 5.46025 13.9719 5.83335 13.4134 5.83335C12.8548 5.83335 12.402 5.46025 12.402 5.00002V2.50002C12.402 2.03979 12.8548 1.66669 13.4134 1.66669Z" fill="white"/>
<path fill-rule="evenodd" clip-rule="evenodd" d="M18.4701 1.66669C19.0286 1.66669 19.4814 2.03979 19.4814 2.50002V5.00002C19.4814 5.46025 19.0286 5.83335 18.4701 5.83335C17.9115 5.83335 17.4587 5.46025 17.4587 5.00002V2.50002C17.4587 2.03979 17.9115 1.66669 18.4701 1.66669Z" fill="white"/>
</svg>
